<svg width="529" height="133" viewBox="0 0 529 133" fill="none" xmlns="http://www.w3.org/2000/svg">
<path d="M134.488 93.7095C134.039 96.9182 133.814 99.5815 133.814 101.699C133.814 107.411 135.835 112.288 139.878 116.331C143.921 120.31 148.831 122.299 154.606 122.299C159.227 122.299 163.655 121.369 167.89 119.508C172.19 117.582 178.543 113.379 186.95 106.897L188.972 109.689C173.762 124.77 159.259 132.31 145.461 132.31C136.092 132.31 129.033 129.358 124.284 123.454C119.535 117.55 117.161 111.037 117.161 103.913C117.161 94.3513 120.113 84.5647 126.017 74.5536C131.921 64.5424 139.333 56.7773 148.253 51.2584C157.173 45.6752 166.35 42.8837 175.784 42.8837C182.586 42.8837 187.624 44.2634 190.897 47.0229C194.17 49.7824 195.806 53.0552 195.806 56.8415C195.806 62.168 193.688 67.2698 189.453 72.147C183.87 78.5003 175.655 83.6342 164.81 87.5488C157.622 90.18 147.515 92.2335 134.488 93.7095ZM135.162 88.9927C144.659 87.9018 152.392 86.0407 158.36 83.4096C166.254 79.88 172.158 75.6766 176.073 70.7994C180.051 65.858 182.041 61.1733 182.041 56.7453C182.041 54.0499 181.174 51.868 179.442 50.1995C177.773 48.531 175.367 47.6967 172.222 47.6967C165.676 47.6967 158.713 51.1942 151.333 58.1892C144.018 65.12 138.627 75.3878 135.162 88.9927ZM208.898 48.2743L242.108 42.8837L228.246 89.6666C239.477 70.4785 249.68 57.0661 258.857 49.4294C264.055 45.0656 268.291 42.8837 271.564 42.8837C273.681 42.8837 275.35 43.5254 276.569 44.8089C277.789 46.0282 278.398 47.8251 278.398 50.1995C278.398 54.435 277.307 58.478 275.125 62.3284C273.585 65.2162 271.371 66.6602 268.483 66.6602C267.007 66.6602 265.724 66.1789 264.633 65.2162C263.606 64.2536 262.964 62.7776 262.708 60.7882C262.579 59.5689 262.29 58.7667 261.841 58.3817C261.328 57.8683 260.718 57.6116 260.012 57.6116C258.921 57.6116 257.895 57.8683 256.932 58.3817C255.263 59.2801 252.729 61.7829 249.327 65.8901C244.001 72.1791 238.225 80.3292 232 90.3404C229.305 94.5759 226.995 99.3569 225.069 104.683C222.374 111.999 220.834 116.395 220.449 117.871L217.369 130H202.641L220.449 70.2218C222.503 63.291 223.529 58.3496 223.529 55.3976C223.529 54.2425 223.048 53.2799 222.085 52.5098C220.802 51.483 219.101 50.9696 216.984 50.9696C215.636 50.9696 213.165 51.2584 209.571 51.8359L208.898 48.2743ZM346.936 42.8837L341.064 72.4358H337.503C337.182 63.8365 335.353 57.5795 332.016 53.6649C328.679 49.7503 324.539 47.793 319.598 47.793C315.619 47.793 312.443 48.8839 310.068 51.0658C307.758 53.2478 306.603 55.8789 306.603 58.9593C306.603 61.077 307.052 63.0985 307.95 65.0237C308.913 66.9489 310.967 69.6443 314.111 73.1097C322.454 82.2224 327.844 89.089 330.283 93.7095C332.722 98.3301 333.941 102.694 333.941 106.801C333.941 113.475 331.149 119.411 325.566 124.609C320.047 129.743 313.052 132.31 304.581 132.31C299.961 132.31 294.634 131.219 288.602 129.037C286.484 128.267 284.848 127.882 283.693 127.882C280.805 127.882 278.623 129.358 277.147 132.31H273.585L279.457 101.122H283.019C283.404 110.876 285.425 117.775 289.083 121.818C292.741 125.861 297.747 127.882 304.1 127.882C308.977 127.882 312.828 126.535 315.651 123.839C318.539 121.08 319.983 117.711 319.983 113.732C319.983 111.165 319.47 108.79 318.443 106.609C316.646 102.758 312.86 97.4316 307.084 90.6292C301.372 83.8267 297.682 78.7249 296.014 75.3237C294.41 71.9224 293.607 68.5212 293.607 65.12C293.607 58.8951 295.854 53.6328 300.346 49.3331C304.902 45.0335 310.742 42.8837 317.865 42.8837C319.919 42.8837 321.78 43.0441 323.448 43.365C324.347 43.5575 326.432 44.2955 329.705 45.579C333.042 46.7983 335.256 47.4079 336.347 47.4079C339.107 47.4079 341.417 45.8998 343.278 42.8837H346.936ZM445.026 45.1939L428.277 102.566C425.774 111.101 424.523 116.491 424.523 118.737C424.523 119.893 424.715 120.759 425.1 121.336C425.549 121.85 426.127 122.107 426.833 122.107C427.924 122.107 429.111 121.625 430.395 120.663C431.742 119.636 435.079 115.657 440.406 108.726L443.294 110.94C438.224 118.962 433.026 124.866 427.699 128.652C424.17 131.091 420.768 132.31 417.496 132.31C414.993 132.31 413.035 131.604 411.624 130.193C410.212 128.781 409.506 126.952 409.506 124.706C409.506 122.524 409.923 119.636 410.757 116.042C411.784 111.293 414.704 100.961 419.517 85.046C408.607 102.951 399.463 115.304 392.083 122.107C384.767 128.909 377.964 132.31 371.675 132.31C368.723 132.31 366.22 131.283 364.167 129.23C362.113 127.176 361.086 124.577 361.086 121.433C361.086 116.62 362.498 109.24 365.322 99.2927L373.697 69.548C375.75 62.4247 376.777 57.9967 376.777 56.264C376.777 55.4939 376.488 54.8521 375.911 54.3387C375.397 53.7612 374.82 53.4724 374.178 53.4724C372.83 53.4724 371.483 53.9537 370.135 54.9163C368.787 55.8789 365.739 59.4406 360.99 65.6013L358.006 63.4835C362.819 56.0393 367.921 50.5525 373.312 47.0229C377.419 44.2634 381.205 42.8837 384.67 42.8837C387.045 42.8837 388.97 43.6537 390.446 45.1939C391.986 46.6699 392.756 48.5951 392.756 50.9696C392.756 54.435 391.473 60.6278 388.906 69.548L379.857 100.64C377.355 109.111 376.103 114.47 376.103 116.716C376.103 117.935 376.488 118.93 377.258 119.7C378.093 120.406 379.184 120.759 380.531 120.759C382.649 120.759 385.408 119.7 388.81 117.582C392.211 115.465 396.735 110.78 402.383 103.528C408.094 96.2123 412.779 89.3778 416.437 83.0246C420.159 76.6071 424.105 66.4355 428.277 52.5098L430.395 45.1939H445.026ZM467.359 45.1939H528.485V47.6004L461.872 116.908H490.076C496.751 116.908 500.986 116.652 502.783 116.138C504.58 115.625 506.216 114.534 507.692 112.866C509.232 111.197 510.933 108.181 512.794 103.817H516.356L507.981 130H445.315V127.208L511.928 57.9004H484.205C478.365 57.9004 474.835 58.0608 473.616 58.3817C471.819 58.7667 470.022 59.7935 468.225 61.4621C466.492 63.0664 464.696 65.7617 462.835 69.548H459.177L467.359 45.1939Z" fill="#EFEBE6"/>
<path d="M112.27 81.3808L110.162 80.1639C109.795 79.9518 109.709 79.4483 109.964 79.1091C138.921 40.5254 128.734 35.9022 101.716 35.8245C101.326 35.8234 101 35.5075 101 35.1176V33.8699C101 33.485 101.317 33.171 101.702 33.1626C132.003 32.5034 146.073 24.2678 166.944 0.442974C167.166 0.189158 167.542 0.121685 167.834 0.2904L168.77 0.830622C169.14 1.04462 169.229 1.54624 168.968 1.88496C151.468 24.5426 148.601 34.1472 181.251 33.1998C181.65 33.1883 182 33.5072 182 33.9063V35.1668C182 35.5369 181.705 35.8447 181.336 35.8731C147.561 38.4695 133.874 51.4135 113.208 81.165C112.998 81.4667 112.588 81.5645 112.27 81.3808Z" fill="#C2410C"/>
<path d="M100.649 105.998C95.7007 112.934 86.5625 125.694 84.0523 129.02C83.767 129.398 83.2076 129.343 82.9569 128.941C38.8041 58.1563 24.1992 39.0843 0.711355 38.7115C0.321556 38.7053 0 38.3898 0 38V35.7059C0 35.316 0.316031 35 0.705879 35H84.5294C84.9193 35 85.2353 35.316 85.2353 35.7059V37.0718C85.2353 37.4067 84.9836 37.6987 84.6559 37.7679C56.2782 43.7556 62.5187 53.1259 100.632 105.167C100.812 105.412 100.826 105.75 100.649 105.998Z" fill="#EFEBE6"/>
</svg>
