<svg width="249" height="249" viewBox="0 0 249 249" fill="none" xmlns="http://www.w3.org/2000/svg">
<rect width="249" height="249" fill="#EFEBE6"/>
<path d="M67.2355 84.8518L95.055 78.8837C97.0444 83.6325 98.6487 88.4777 99.868 93.4191C101.601 100.671 103.013 109.27 104.104 119.217C104.617 124.223 105.323 134.811 106.221 150.983C114.243 142.127 119.024 136.64 120.564 134.523C129.035 123.035 133.912 116.297 135.196 114.308C137.314 110.907 138.79 107.922 139.624 105.355C140.33 103.43 140.683 101.601 140.683 99.8686C140.683 98.2001 139.175 96.2748 136.158 94.0929C133.206 91.911 131.73 89.4724 131.73 86.7771C131.73 84.7235 132.533 82.8945 134.137 81.2902C135.806 79.6858 137.763 78.8837 140.009 78.8837C142.704 78.8837 145.079 80.0067 147.132 82.2528C149.186 84.4347 150.213 87.1621 150.213 90.435C150.213 93.7079 149.699 96.8524 148.672 99.8686C147.004 104.746 143.891 110.714 139.335 117.773C134.779 124.768 127.431 134.17 117.291 145.978C116.008 147.454 108.884 154.898 95.9213 168.31H92.3597C90.8195 127.688 87.6108 102.339 82.7335 92.264C81.1292 88.9911 78.466 87.3546 74.7439 87.3546C73.1395 87.3546 70.8613 87.6434 67.9093 88.221L67.2355 84.8518Z" fill="#151411"/>
<path d="M152.33 148.769C155.09 148.769 157.4 149.732 159.261 151.657C161.186 153.518 162.149 155.796 162.149 158.492C162.149 161.187 161.186 163.497 159.261 165.422C157.336 167.283 155.026 168.214 152.33 168.214C149.635 168.214 147.325 167.283 145.4 165.422C143.539 163.497 142.608 161.187 142.608 158.492C142.608 155.796 143.539 153.518 145.4 151.657C147.325 149.732 149.635 148.769 152.33 148.769Z" fill="#C2410C"/>
</svg>
