<svg width="186" height="128" viewBox="0 0 186 128" fill="none" xmlns="http://www.w3.org/2000/svg">
<path d="M116.27 81.3808L114.162 80.1639C113.795 79.9518 113.709 79.4483 113.964 79.1091C142.921 40.5254 132.734 35.9022 105.716 35.8245C105.326 35.8234 105 35.5075 105 35.1176V33.8699C105 33.485 105.317 33.171 105.702 33.1626C136.003 32.5034 150.073 24.2678 170.944 0.442974C171.166 0.189158 171.542 0.121685 171.834 0.2904L172.77 0.830622C173.14 1.04462 173.229 1.54624 172.968 1.88496C155.468 24.5426 152.601 34.1472 185.251 33.1998C185.65 33.1883 186 33.5072 186 33.9063V35.1668C186 35.5369 185.705 35.8447 185.336 35.8731C151.561 38.4695 137.874 51.4135 117.208 81.165C116.998 81.4667 116.588 81.5645 116.27 81.3808Z" fill="#C2410C"></path>
<path d="M100.649 103.822C95.7007 110.758 86.5625 123.517 84.0523 126.844C83.767 127.222 83.2076 127.166 82.9569 126.764C38.8041 55.9798 24.1992 36.9077 0.711355 36.535C0.321556 36.5288 0 36.2133 0 35.8235V33.5294C0 33.1395 0.316031 32.8235 0.705879 32.8235H84.5294C84.9193 32.8235 85.2353 33.1395 85.2353 33.5294V34.8953C85.2353 35.2302 84.9836 35.5222 84.6559 35.5914C56.2782 41.5791 62.5187 50.9493 100.632 102.99C100.812 103.236 100.826 103.574 100.649 103.822Z" fill="#151411"></path>
</svg>